<?xml version="1.0" encoding="UTF-8"?>
<svg width="18px" height="18px" viewBox="0 0 18 18" version="1.1" xmlns="http://www.w3.org/2000/svg" xmlns:xlink="http://www.w3.org/1999/xlink">
    <title>icon-calendar</title>
    <g id="Symbols" stroke="none" stroke-width="1" fill="none" fill-rule="evenodd">
        <g id="Group" fill="#535353" fill-rule="nonzero">
            <path d="M1.28571429,6.42857143 L1.28571429,16.7142857 L16.7142857,16.7142857 L16.7142857,2.57142857 L14.1428571,2.57142857 L14.1428571,3.21428571 C14.1428571,3.56932591 13.8550402,3.85714286 13.5,3.85714286 C13.1449598,3.85714286 12.8571429,3.56932591 12.8571429,3.21428571 L12.8571429,2.57142857 L5.14285714,2.57142857 L5.14285714,3.21428571 C5.14285714,3.56932591 4.8550402,3.85714286 4.5,3.85714286 C4.1449598,3.85714286 3.85714286,3.56932591 3.85714286,3.21428571 L3.85714286,2.57142857 L1.28571429,2.57142857 L1.28571429,5.14285714 L16.7142857,5.14285714 L16.7142857,6.42857143 L1.28571429,6.42857143 Z M5.14285714,1.28571429 L12.8571429,1.28571429 L12.8571429,0.642857143 C12.8571429,0.287816947 13.1449598,0 13.5,0 C13.8550402,0 14.1428571,0.287816947 14.1428571,0.642857143 L14.1428571,1.28571429 L17.3571429,1.28571429 C17.7121831,1.28571429 18,1.57353123 18,1.92857143 L18,17.3571429 C18,17.7121831 17.7121831,18 17.3571429,18 L0.642857143,18 C0.287816947,18 0,17.7121831 0,17.3571429 L0,1.92857143 C0,1.57353123 0.287816947,1.28571429 0.642857143,1.28571429 L3.85714286,1.28571429 L3.85714286,0.642857143 C3.85714286,0.287816947 4.1449598,0 4.5,0 C4.8550402,0 5.14285714,0.287816947 5.14285714,0.642857143 L5.14285714,1.28571429 Z M4.5,9 L5.78571429,9 C6.14075448,9 6.42857143,9.28781695 6.42857143,9.64285714 C6.42857143,9.99789734 6.14075448,10.2857143 5.78571429,10.2857143 L4.5,10.2857143 C4.1449598,10.2857143 3.85714286,9.99789734 3.85714286,9.64285714 C3.85714286,9.28781695 4.1449598,9 4.5,9 Z M4.5,12.8571429 L5.78571429,12.8571429 C6.14075448,12.8571429 6.42857143,13.1449598 6.42857143,13.5 C6.42857143,13.8550402 6.14075448,14.1428571 5.78571429,14.1428571 L4.5,14.1428571 C4.1449598,14.1428571 3.85714286,13.8550402 3.85714286,13.5 C3.85714286,13.1449598 4.1449598,12.8571429 4.5,12.8571429 Z M8.35714286,9 L9.64285714,9 C9.99789734,9 10.2857143,9.28781695 10.2857143,9.64285714 C10.2857143,9.99789734 9.99789734,10.2857143 9.64285714,10.2857143 L8.35714286,10.2857143 C8.00210266,10.2857143 7.71428571,9.99789734 7.71428571,9.64285714 C7.71428571,9.28781695 8.00210266,9 8.35714286,9 Z M8.35714286,12.8571429 L9.64285714,12.8571429 C9.99789734,12.8571429 10.2857143,13.1449598 10.2857143,13.5 C10.2857143,13.8550402 9.99789734,14.1428571 9.64285714,14.1428571 L8.35714286,14.1428571 C8.00210266,14.1428571 7.71428571,13.8550402 7.71428571,13.5 C7.71428571,13.1449598 8.00210266,12.8571429 8.35714286,12.8571429 Z M12.2142857,9 L13.5,9 C13.8550402,9 14.1428571,9.28781695 14.1428571,9.64285714 C14.1428571,9.99789734 13.8550402,10.2857143 13.5,10.2857143 L12.2142857,10.2857143 C11.8592455,10.2857143 11.5714286,9.99789734 11.5714286,9.64285714 C11.5714286,9.28781695 11.8592455,9 12.2142857,9 Z M12.2142857,12.8571429 L13.5,12.8571429 C13.8550402,12.8571429 14.1428571,13.1449598 14.1428571,13.5 C14.1428571,13.8550402 13.8550402,14.1428571 13.5,14.1428571 L12.2142857,14.1428571 C11.8592455,14.1428571 11.5714286,13.8550402 11.5714286,13.5 C11.5714286,13.1449598 11.8592455,12.8571429 12.2142857,12.8571429 Z" id="icon-calendar"></path>
        </g>
    </g>
</svg>