<?xml version="1.0" encoding="UTF-8"?>
<svg width="30px" height="28px" viewBox="0 0 30 28" version="1.1" xmlns="http://www.w3.org/2000/svg" xmlns:xlink="http://www.w3.org/1999/xlink">
    <title>Group</title>
    <g id="Page-1" stroke="none" stroke-width="1" fill="none" fill-rule="evenodd">
        <g id="Artboard" fill="#FFFFFF" fill-rule="nonzero">
            <g id="Group">
                <path d="M27.8571429,6.42857143 L2.14285714,6.42857143 L2.14285714,25.7142857 L27.8571429,25.7142857 L27.8571429,6.42857143 Z M21.18,4.28571429 L20.1064286,2.14285714 L9.89571429,2.14285714 L8.82428571,4.28571429 L21.18,4.28571429 Z M1.07142857,4.28571429 L6.42857143,4.28571429 L7.98,1.185 C8.34270759,0.459151261 9.08428776,0.000433324648 9.89571429,0 L20.1064286,0 C20.9173783,0 21.6588374,0.457840895 22.0221429,1.18285714 L23.5778571,4.28571429 L28.9285714,4.28571429 C29.5203051,4.28571429 30,4.7654092 30,5.35714286 L30,26.7857143 C30,27.3774479 29.5203051,27.8571429 28.9285714,27.8571429 L1.07142857,27.8571429 C0.479694911,27.8571429 0,27.3774479 0,26.7857143 L0,5.35714286 C0,4.7654092 0.479694911,4.28571429 1.07142857,4.28571429 Z M15,21.4285714 C17.9586683,21.4285714 20.3571429,19.0300969 20.3571429,16.0714286 C20.3571429,13.1127603 17.9586683,10.7142857 15,10.7142857 C12.0413317,10.7142857 9.64285714,13.1127603 9.64285714,16.0714286 C9.64285714,19.0300969 12.0413317,21.4285714 15,21.4285714 Z M15,23.5714286 C10.8578644,23.5714286 7.5,20.2135642 7.5,16.0714286 C7.5,11.9292929 10.8578644,8.57142857 15,8.57142857 C19.1421356,8.57142857 22.5,11.9292929 22.5,16.0714286 C22.5,20.2135642 19.1421356,23.5714286 15,23.5714286 Z" id="Shape"></path>
            </g>
        </g>
    </g>
</svg>