<svg width="18px" height="20px" viewBox="0 0 18 20" version="1.1" xmlns="http://www.w3.org/2000/svg" xmlns:xlink="http://www.w3.org/1999/xlink">
    <title>Datepicker</title>
    <defs>
        <path d="M426,52 C426.55,52 427,52.45 427,53 C427,53.55 426.55,54 426,54 C425.45,54 425,53.55 425,53 C425,52.45 425.45,52 426,52 Z M434,52 C434.55,52 435,52.45 435,53 C435,53.55 434.55,54 434,54 L434,54 L430,54 C429.45,54 429,53.55 429,53 C429,52.45 429.45,52 430,52 L430,52 Z M436,57 L424,57 C423.449,57 423,56.551 423,56 L423,50 L437,50 L437,56 C437,56.551 436.551,57 436,57 M424,43 L425,43 L425,44 C425,44.55 425.45,45 426,45 C426.55,45 427,44.55 427,44 L427,43 L433,43 L433,44 C433,44.55 433.45,45 434,45 C434.55,45 435,44.55 435,44 L435,43 L436,43 C436.551,43 437,43.449 437,44 L437,48 L423,48 L423,44 C423,43.449 423.449,43 424,43 M436,41 L435,41 L435,40 C435,39.45 434.55,39 434,39 C433.45,39 433,39.45 433,40 L433,41 L427,41 L427,40 C427,39.45 426.55,39 426,39 C425.45,39 425,39.45 425,40 L425,41 L424,41 C422.346,41 421,42.346 421,44 L421,56 C421,57.654 422.346,59 424,59 L436,59 C437.654,59 439,57.654 439,56 L439,44 C439,42.346 437.654,41 436,41" id="path-1"></path>
    </defs>
    <g id="Symbols" stroke="none" stroke-width="1" fill="none" fill-rule="evenodd">
        <g id="Input/Date/Required_Cus" transform="translate(-421.000000, -39.000000)">
            <mask id="mask-2" fill="white">
                <use xlink:href="#path-1"></use>
            </mask>
            <use id="Datepicker" fill="#535353" fill-rule="nonzero" xlink:href="#path-1"></use>
        </g>
    </g>
</svg>